<?xml version="1.0" encoding="utf-8"?>
<svg xmlns="http://www.w3.org/2000/svg"
	xmlns:xlink="http://www.w3.org/1999/xlink"
	width="18px" height="18px" viewBox="0 0 18 18">
<path fillRule="evenodd" d="M 9 17.99C 4.03 17.99-0 13.96-0 8.99-0 4.02 4.03-0.01 9-0.01 13.97-0.01 18 4.02 18 8.99 18 13.96 13.97 17.99 9 17.99ZM 8.93 1.74C 4.91 1.74 1.66 4.99 1.66 9.01 1.66 13.02 4.91 16.28 8.93 16.28 12.94 16.28 16.2 13.02 16.2 9.01 16.2 4.99 12.94 1.74 8.93 1.74ZM 11.03 10.8C 11.03 10.8 8.28 10.8 8.28 10.8 7.9 10.8 7.59 10.49 7.59 10.11 7.59 10.11 7.59 5.94 7.59 5.94 7.59 5.56 7.9 5.26 8.28 5.26 8.66 5.26 8.96 5.56 8.96 5.94 8.96 5.94 8.96 9.43 8.96 9.43 8.96 9.43 11.03 9.43 11.03 9.43 11.41 9.43 11.71 9.73 11.71 10.11 11.71 10.49 11.41 10.8 11.03 10.8Z" fill="rgb(143,143,143)"/></svg>