<?xml version="1.0" encoding="utf-8"?>
<svg xmlns="http://www.w3.org/2000/svg"
	xmlns:xlink="http://www.w3.org/1999/xlink"
	width="31px" height="26px" viewBox="0 0 31 26">
<filter filterUnits="objectBoundingBox" x="0.00" y="0.00" width="100.00" height="104.00" id="filter0">
<feGaussianBlur in="SourceAlpha" stdDeviation="0.00" result="dsBlurOut1"/>
<feFlood flood-color="rgb(255,255,255)" result="dsFloodOut1"/>
<feComposite in="dsFloodOut1" in2="dsBlurOut1" operator="in" result="dsShadow1"/>
<feOffset in="dsShadow1" dx="0.50" dy="0.87" result="dsOffset1"/>
<feComposite in="dsOffset1" in2="SourceAlpha" operator="out" result="dropShadow1"/>
<feBlend in="dropShadow1" in2="SourceGraphic" mode="normal" result="sourceGraphic"/>
<feFlood flood-color="rgb(211,211,211)" result="coFloodOut1"/>
<feComposite in="coFloodOut1" in2="SourceAlpha" operator="in" result="coOverlay1"/>
<feBlend in="coOverlay1" in2="sourceGraphic" mode="normal" result="colorOverlay1"/>
</filter>
<path fillRule="evenodd" d="M 29.1 23.18C 29.8 23.09 30.21 23.16 30.34 23.38 30.52 23.71 30.44 23.98 30.09 24.18 29.39 24.59 28.53 24.62 27.51 24.27 26.49 23.93 25.75 23.35 25.29 22.55 24.13 20.55 24.66 18.22 26.88 15.56 26.88 15.56 27.26 15.1 27.26 15.1 29.16 12.83 29.62 10.85 28.66 9.19 28.23 8.44 27.14 8.19 25.94 8.23 25.02 8.26 24.05 8.48 23.24 8.77 23.72 10.07 24 11.47 24 12.94 24 19.56 18.63 24.94 12 24.94 5.37 24.94-0 19.56-0 12.94-0 6.31 5.37 0.94 12 0.94 16.75 0.94 20.85 3.71 22.79 7.72 25.2 6.69 28.54 6.52 29.7 8.52 30.83 10.49 30.44 12.81 28.51 15.47 28.51 15.47 27.86 16.38 27.86 16.38 26.82 17.79 26.2 18.89 25.99 19.65 25.78 20.41 25.89 21.17 26.33 21.93 26.9 22.93 27.83 23.35 29.1 23.18ZM 6.5 10.5C 5.12 10.5 4 11.62 4 13 4 14.38 5.12 15.5 6.5 15.5 7.88 15.5 9 14.38 9 13 9 11.62 7.88 10.5 6.5 10.5ZM 12 5C 10.62 5 9.5 6.12 9.5 7.5 9.5 8.88 10.62 10 12 10 13.38 10 14.5 8.88 14.5 7.5 14.5 6.12 13.38 5 12 5ZM 11.02 13C 11.02 13.55 11.47 14 12.02 14 12.57 14 13.02 13.55 13.02 13 13.02 12.45 12.57 12 12.02 12 11.47 12 11.02 12.45 11.02 13ZM 12 16C 10.62 16 9.5 17.12 9.5 18.5 9.5 19.88 10.62 21 12 21 13.38 21 14.5 19.88 14.5 18.5 14.5 17.12 13.38 16 12 16ZM 17.5 10.5C 16.12 10.5 15 11.62 15 13 15 14.38 16.12 15.5 17.5 15.5 18.88 15.5 20 14.38 20 13 20 11.62 18.88 10.5 17.5 10.5Z" fill="rgb(255,255,255)" filter="url(#filter0)"/></svg>