<?xml version="1.0" encoding="utf-8"?>
<svg xmlns="http://www.w3.org/2000/svg"
	xmlns:xlink="http://www.w3.org/1999/xlink"
	width="15px" height="15px" viewBox="0 0 15 15">
<path fillRule="evenodd" d="M 0.26 6.33C 0.26 6.33 0.26 8.05 0.26 8.05 0.26 8.05 6.56 8.05 6.56 8.05 6.56 8.05 6.56 14.42 6.56 14.42 6.56 14.42 8.25 14.42 8.25 14.42 8.25 14.42 8.25 8.05 8.25 8.05 8.25 8.05 14.55 8.05 14.55 8.05 14.55 8.05 14.55 6.33 14.55 6.33 14.55 6.33 8.25 6.33 8.25 6.33 8.25 6.33 8.25 0.13 8.25 0.13 8.25 0.13 6.56 0.13 6.56 0.13 6.56 0.13 6.56 6.33 6.56 6.33 6.56 6.33 0.26 6.33 0.26 6.33Z" fill="rgb(255,255,255)"/></svg>