<?xml version="1.0" encoding="utf-8"?>
<svg xmlns="http://www.w3.org/2000/svg"
	xmlns:xlink="http://www.w3.org/1999/xlink"
	width="19px" height="20px" viewBox="0 0 19 20">
<filter filterUnits="objectBoundingBox" x="0.00" y="0.00" width="100.00" height="105.26" id="filter0">
<feGaussianBlur in="SourceAlpha" stdDeviation="0.00" result="dsBlurOut1"/>
<feFlood flood-color="rgb(255,255,255)" result="dsFloodOut1"/>
<feComposite in="dsFloodOut1" in2="dsBlurOut1" operator="in" result="dsShadow1"/>
<feOffset in="dsShadow1" dx="0.50" dy="0.87" result="dsOffset1"/>
<feComposite in="dsOffset1" in2="SourceAlpha" operator="out" result="dropShadow1"/>
<feBlend in="dropShadow1" in2="SourceGraphic" mode="normal" result="sourceGraphic"/>
</filter>
<path fillRule="evenodd" d="M 9.5 19C 4.25 19-0 14.75-0 9.5-0 4.25 4.25-0 9.5-0 14.75-0 19 4.25 19 9.5 19 14.75 14.75 19 9.5 19ZM 14.2 9.09C 14.2 8.69 13.88 8.36 13.47 8.36 13.47 8.36 10.55 8.36 10.55 8.36 10.55 8.36 10.55 5.43 10.55 5.43 10.55 5.03 10.22 4.7 9.82 4.7 9.82 4.7 9.09 4.7 9.09 4.7 8.69 4.7 8.36 5.03 8.36 5.43 8.36 5.43 8.36 8.36 8.36 8.36 8.36 8.36 5.44 8.36 5.44 8.36 5.03 8.36 4.7 8.69 4.7 9.09 4.7 9.09 4.7 9.82 4.7 9.82 4.7 10.22 5.03 10.55 5.44 10.55 5.44 10.55 8.36 10.55 8.36 10.55 8.36 10.55 8.36 13.47 8.36 13.47 8.36 13.88 8.69 14.2 9.09 14.2 9.09 14.2 9.82 14.2 9.82 14.2 10.22 14.2 10.55 13.88 10.55 13.47 10.55 13.47 10.55 10.55 10.55 10.55 10.55 10.55 13.47 10.55 13.47 10.55 13.88 10.55 14.2 10.22 14.2 9.82 14.2 9.82 14.2 9.09 14.2 9.09Z" fill="rgb(189,189,189)" filter="url(#filter0)"/></svg>