<?xml version="1.0" encoding="utf-8"?>
<svg xmlns="http://www.w3.org/2000/svg"
	xmlns:xlink="http://www.w3.org/1999/xlink"
	width="13px" height="10px" viewBox="0 0 13 10">
<filter filterUnits="objectBoundingBox" x="0.00" y="0.00" width="100.00" height="111.11" id="filter0">
<feGaussianBlur in="SourceAlpha" stdDeviation="0.00" result="dsBlurOut1"/>
<feFlood flood-color="rgb(255,255,255)" result="dsFloodOut1"/>
<feComposite in="dsFloodOut1" in2="dsBlurOut1" operator="in" result="dsShadow1"/>
<feOffset in="dsShadow1" dx="0.50" dy="0.87" result="dsOffset1"/>
<feComposite in="dsOffset1" in2="SourceAlpha" operator="out" result="dropShadow1"/>
<feBlend in="dropShadow1" in2="SourceGraphic" mode="normal" result="sourceGraphic"/>
<feFlood flood-color="rgb(143,143,143)" result="coFloodOut1"/>
<feComposite in="coFloodOut1" in2="SourceAlpha" operator="in" result="coOverlay1"/>
<feBlend in="coOverlay1" in2="sourceGraphic" mode="normal" result="colorOverlay1"/>
</filter>
<path fillRule="evenodd" d="M 13 4.15C 12.54 4.23 11.88 4.15 11.53 4 12.26 3.94 12.75 3.61 12.94 3.15 12.68 3.32 11.86 3.49 11.41 3.32 11.39 3.22 11.36 3.12 11.34 3.02 10.99 1.76 9.82 0.73 8.58 0.86 8.68 0.82 8.78 0.78 8.88 0.74 9.02 0.69 9.82 0.56 9.69 0.28 9.58 0.03 8.61 0.47 8.43 0.53 8.67 0.44 9.07 0.28 9.11-0 8.74 0.05 8.38 0.23 8.1 0.48 8.2 0.37 8.27 0.24 8.29 0.09 7.3 0.73 6.72 2.01 6.26 3.25 5.89 2.89 5.56 2.61 5.27 2.46 4.45 2.01 3.47 1.55 1.94 0.98 1.89 1.49 2.19 2.17 3.05 2.62 2.86 2.6 2.52 2.65 2.25 2.72 2.36 3.31 2.72 3.79 3.7 4.02 3.25 4.05 3.02 4.15 2.81 4.37 3.02 4.78 3.52 5.26 4.41 5.16 3.41 5.59 4.01 6.4 4.82 6.28 3.43 7.71 1.25 7.61-0 6.41 3.27 10.89 10.39 9.06 11.45 4.74 12.24 4.75 12.71 4.46 13 4.15Z" fill="rgb(255,255,255)" filter="url(#filter0)"/></svg>